<svg width="2315" height="874" viewBox="0 0 2315 874" fill="none" xmlns="http://www.w3.org/2000/svg">
<mask id="path-1-outside-1_200_46" maskUnits="userSpaceOnUse" x="28" y="92" width="1684" height="266" fill="black">
<rect fill="white" x="28" y="92" width="1684" height="266"/>
<path d="M32.2074 96.3409H193.244V128.548H128.83V354H96.6222V128.548H32.2074V96.3409ZM257.785 96.3409H289.992V192.963H322.2V225.17H289.992V354H257.785V96.3409ZM386.614 192.963H418.822V354H386.614V192.963ZM322.2 160.756H386.614V192.963H322.2V160.756ZM547.777 192.963H483.362V160.756H579.985V321.793H644.399V354H483.362V321.793H547.777V192.963ZM547.777 96.3409H579.985V128.548H547.777V96.3409ZM708.94 160.756H741.147V192.963H773.355V225.17H741.147V354H708.94V160.756ZM773.355 160.756H837.769V192.963H773.355V160.756ZM837.769 192.963H869.977V354H837.769V192.963ZM934.517 96.3409H966.725V257.378H998.932V225.17H1031.14V289.585H966.725V354H934.517V96.3409ZM1063.35 160.756H1095.55V192.963H1063.35V160.756ZM1031.14 192.963H1063.35V225.17H1031.14V192.963ZM1031.14 289.585H1063.35V321.793H1031.14V289.585ZM1063.35 321.793H1095.55V354H1063.35V321.793ZM1224.51 192.963H1160.09V160.756H1256.72V321.793H1321.13V354H1160.09V321.793H1224.51V192.963ZM1224.51 96.3409H1256.72V128.548H1224.51V96.3409ZM1385.67 160.756H1417.88V192.963H1450.09V225.17H1417.88V354H1385.67V160.756ZM1450.09 160.756H1514.5V192.963H1450.09V160.756ZM1514.5 192.963H1546.71V354H1514.5V192.963ZM1675.66 96.3409H1707.87V192.963H1675.66V96.3409Z"/>
</mask>
<path d="M32.2074 96.3409H193.244V128.548H128.83V354H96.6222V128.548H32.2074V96.3409ZM257.785 96.3409H289.992V192.963H322.2V225.17H289.992V354H257.785V96.3409ZM386.614 192.963H418.822V354H386.614V192.963ZM322.2 160.756H386.614V192.963H322.2V160.756ZM547.777 192.963H483.362V160.756H579.985V321.793H644.399V354H483.362V321.793H547.777V192.963ZM547.777 96.3409H579.985V128.548H547.777V96.3409ZM708.94 160.756H741.147V192.963H773.355V225.17H741.147V354H708.94V160.756ZM773.355 160.756H837.769V192.963H773.355V160.756ZM837.769 192.963H869.977V354H837.769V192.963ZM934.517 96.3409H966.725V257.378H998.932V225.17H1031.14V289.585H966.725V354H934.517V96.3409ZM1063.35 160.756H1095.55V192.963H1063.35V160.756ZM1031.14 192.963H1063.35V225.17H1031.14V192.963ZM1031.14 289.585H1063.35V321.793H1031.14V289.585ZM1063.35 321.793H1095.55V354H1063.35V321.793ZM1224.51 192.963H1160.09V160.756H1256.72V321.793H1321.13V354H1160.09V321.793H1224.51V192.963ZM1224.51 96.3409H1256.72V128.548H1224.51V96.3409ZM1385.67 160.756H1417.88V192.963H1450.09V225.17H1417.88V354H1385.67V160.756ZM1450.09 160.756H1514.5V192.963H1450.09V160.756ZM1514.5 192.963H1546.71V354H1514.5V192.963ZM1675.66 96.3409H1707.87V192.963H1675.66V96.3409Z" fill="black"/>
<path d="M32.2074 96.3409V92.7213H28.5878V96.3409H32.2074ZM193.244 96.3409H196.864V92.7213H193.244V96.3409ZM193.244 128.548V132.168H196.864V128.548H193.244ZM128.83 128.548V124.929H125.21V128.548H128.83ZM128.83 354V357.62H132.449V354H128.83ZM96.6222 354H93.0026V357.62H96.6222V354ZM96.6222 128.548H100.242V124.929H96.6222V128.548ZM32.2074 128.548H28.5878V132.168H32.2074V128.548ZM32.2074 96.3409V99.9604H193.244V96.3409V92.7213H32.2074V96.3409ZM193.244 96.3409H189.625V128.548H193.244H196.864V96.3409H193.244ZM193.244 128.548V124.929H128.83V128.548V132.168H193.244V128.548ZM128.83 128.548H125.21V354H128.83H132.449V128.548H128.83ZM128.83 354V350.38H96.6222V354V357.62H128.83V354ZM96.6222 354H100.242V128.548H96.6222H93.0026V354H96.6222ZM96.6222 128.548V124.929H32.2074V128.548V132.168H96.6222V128.548ZM32.2074 128.548H35.8269V96.3409H32.2074H28.5878V128.548H32.2074ZM257.785 96.3409V92.7213H254.165V96.3409H257.785ZM289.992 96.3409H293.612V92.7213H289.992V96.3409ZM289.992 192.963H286.373V196.583H289.992V192.963ZM322.2 192.963H325.819V189.344H322.2V192.963ZM322.2 225.17V228.79H325.819V225.17H322.2ZM289.992 225.17V221.551H286.373V225.17H289.992ZM289.992 354V357.62H293.612V354H289.992ZM257.785 354H254.165V357.62H257.785V354ZM386.614 192.963V189.344H382.995V192.963H386.614ZM418.822 192.963H422.441V189.344H418.822V192.963ZM418.822 354V357.62H422.441V354H418.822ZM386.614 354H382.995V357.62H386.614V354ZM322.2 160.756V157.136H318.58V160.756H322.2ZM386.614 160.756H390.234V157.136H386.614V160.756ZM386.614 192.963V196.583H390.234V192.963H386.614ZM322.2 192.963H318.58V196.583H322.2V192.963ZM257.785 96.3409V99.9604H289.992V96.3409V92.7213H257.785V96.3409ZM289.992 96.3409H286.373V192.963H289.992H293.612V96.3409H289.992ZM289.992 192.963V196.583H322.2V192.963V189.344H289.992V192.963ZM322.2 192.963H318.58V225.17H322.2H325.819V192.963H322.2ZM322.2 225.17V221.551H289.992V225.17V228.79H322.2V225.17ZM289.992 225.17H286.373V354H289.992H293.612V225.17H289.992ZM289.992 354V350.38H257.785V354V357.62H289.992V354ZM257.785 354H261.404V96.3409H257.785H254.165V354H257.785ZM386.614 192.963V196.583H418.822V192.963V189.344H386.614V192.963ZM418.822 192.963H415.202V354H418.822H422.441V192.963H418.822ZM418.822 354V350.38H386.614V354V357.62H418.822V354ZM386.614 354H390.234V192.963H386.614H382.995V354H386.614ZM322.2 160.756V164.375H386.614V160.756V157.136H322.2V160.756ZM386.614 160.756H382.995V192.963H386.614H390.234V160.756H386.614ZM386.614 192.963V189.344H322.2V192.963V196.583H386.614V192.963ZM322.2 192.963H325.819V160.756H322.2H318.58V192.963H322.2ZM547.777 192.963H551.397V189.344H547.777V192.963ZM483.362 192.963H479.743V196.583H483.362V192.963ZM483.362 160.756V157.136H479.743V160.756H483.362ZM579.985 160.756H583.604V157.136H579.985V160.756ZM579.985 321.793H576.365V325.412H579.985V321.793ZM644.399 321.793H648.019V318.173H644.399V321.793ZM644.399 354V357.62H648.019V354H644.399ZM483.362 354H479.743V357.62H483.362V354ZM483.362 321.793V318.173H479.743V321.793H483.362ZM547.777 321.793V325.412H551.397V321.793H547.777ZM547.777 96.3409V92.7213H544.158V96.3409H547.777ZM579.985 96.3409H583.604V92.7213H579.985V96.3409ZM579.985 128.548V132.168H583.604V128.548H579.985ZM547.777 128.548H544.158V132.168H547.777V128.548ZM547.777 192.963V189.344H483.362V192.963V196.583H547.777V192.963ZM483.362 192.963H486.982V160.756H483.362H479.743V192.963H483.362ZM483.362 160.756V164.375H579.985V160.756V157.136H483.362V160.756ZM579.985 160.756H576.365V321.793H579.985H583.604V160.756H579.985ZM579.985 321.793V325.412H644.399V321.793V318.173H579.985V321.793ZM644.399 321.793H640.78V354H644.399H648.019V321.793H644.399ZM644.399 354V350.38H483.362V354V357.62H644.399V354ZM483.362 354H486.982V321.793H483.362H479.743V354H483.362ZM483.362 321.793V325.412H547.777V321.793V318.173H483.362V321.793ZM547.777 321.793H551.397V192.963H547.777H544.158V321.793H547.777ZM547.777 96.3409V99.9604H579.985V96.3409V92.7213H547.777V96.3409ZM579.985 96.3409H576.365V128.548H579.985H583.604V96.3409H579.985ZM579.985 128.548V124.929H547.777V128.548V132.168H579.985V128.548ZM547.777 128.548H551.397V96.3409H547.777H544.158V128.548H547.777ZM708.94 160.756V157.136H705.32V160.756H708.94ZM741.147 160.756H744.767V157.136H741.147V160.756ZM741.147 192.963H737.528V196.583H741.147V192.963ZM773.355 192.963H776.974V189.344H773.355V192.963ZM773.355 225.17V228.79H776.974V225.17H773.355ZM741.147 225.17V221.551H737.528V225.17H741.147ZM741.147 354V357.62H744.767V354H741.147ZM708.94 354H705.32V357.62H708.94V354ZM773.355 160.756V157.136H769.735V160.756H773.355ZM837.769 160.756H841.389V157.136H837.769V160.756ZM837.769 192.963V196.583H841.389V192.963H837.769ZM773.355 192.963H769.735V196.583H773.355V192.963ZM837.769 192.963V189.344H834.15V192.963H837.769ZM869.977 192.963H873.596V189.344H869.977V192.963ZM869.977 354V357.62H873.596V354H869.977ZM837.769 354H834.15V357.62H837.769V354ZM708.94 160.756V164.375H741.147V160.756V157.136H708.94V160.756ZM741.147 160.756H737.528V192.963H741.147H744.767V160.756H741.147ZM741.147 192.963V196.583H773.355V192.963V189.344H741.147V192.963ZM773.355 192.963H769.735V225.17H773.355H776.974V192.963H773.355ZM773.355 225.17V221.551H741.147V225.17V228.79H773.355V225.17ZM741.147 225.17H737.528V354H741.147H744.767V225.17H741.147ZM741.147 354V350.38H708.94V354V357.62H741.147V354ZM708.94 354H712.56V160.756H708.94H705.32V354H708.94ZM773.355 160.756V164.375H837.769V160.756V157.136H773.355V160.756ZM837.769 160.756H834.15V192.963H837.769H841.389V160.756H837.769ZM837.769 192.963V189.344H773.355V192.963V196.583H837.769V192.963ZM773.355 192.963H776.974V160.756H773.355H769.735V192.963H773.355ZM837.769 192.963V196.583H869.977V192.963V189.344H837.769V192.963ZM869.977 192.963H866.357V354H869.977H873.596V192.963H869.977ZM869.977 354V350.38H837.769V354V357.62H869.977V354ZM837.769 354H841.389V192.963H837.769H834.15V354H837.769ZM934.517 96.3409V92.7213H930.898V96.3409H934.517ZM966.725 96.3409H970.344V92.7213H966.725V96.3409ZM966.725 257.378H963.105V260.997H966.725V257.378ZM998.932 257.378V260.997H1002.55V257.378H998.932ZM998.932 225.17V221.551H995.313V225.17H998.932ZM1031.14 225.17H1034.76V221.551H1031.14V225.17ZM1031.14 289.585V293.205H1034.76V289.585H1031.14ZM966.725 289.585V285.966H963.105V289.585H966.725ZM966.725 354V357.62H970.344V354H966.725ZM934.517 354H930.898V357.62H934.517V354ZM1063.35 160.756V157.136H1059.73V160.756H1063.35ZM1095.55 160.756H1099.17V157.136H1095.55V160.756ZM1095.55 192.963V196.583H1099.17V192.963H1095.55ZM1063.35 192.963H1059.73V196.583H1063.35V192.963ZM1031.14 192.963V189.344H1027.52V192.963H1031.14ZM1063.35 192.963H1066.97V189.344H1063.35V192.963ZM1063.35 225.17V228.79H1066.97V225.17H1063.35ZM1031.14 225.17H1027.52V228.79H1031.14V225.17ZM1031.14 289.585V285.966H1027.52V289.585H1031.14ZM1063.35 289.585H1066.97V285.966H1063.35V289.585ZM1063.35 321.793V325.412H1066.97V321.793H1063.35ZM1031.14 321.793H1027.52V325.412H1031.14V321.793ZM1063.35 321.793V318.173H1059.73V321.793H1063.35ZM1095.55 321.793H1099.17V318.173H1095.55V321.793ZM1095.55 354V357.62H1099.17V354H1095.55ZM1063.35 354H1059.73V357.62H1063.35V354ZM934.517 96.3409V99.9604H966.725V96.3409V92.7213H934.517V96.3409ZM966.725 96.3409H963.105V257.378H966.725H970.344V96.3409H966.725ZM966.725 257.378V260.997H998.932V257.378V253.758H966.725V257.378ZM998.932 257.378H1002.55V225.17H998.932H995.313V257.378H998.932ZM998.932 225.17V228.79H1031.14V225.17V221.551H998.932V225.17ZM1031.14 225.17H1027.52V289.585H1031.14H1034.76V225.17H1031.14ZM1031.14 289.585V285.966H966.725V289.585V293.205H1031.14V289.585ZM966.725 289.585H963.105V354H966.725H970.344V289.585H966.725ZM966.725 354V350.38H934.517V354V357.62H966.725V354ZM934.517 354H938.137V96.3409H934.517H930.898V354H934.517ZM1063.35 160.756V164.375H1095.55V160.756V157.136H1063.35V160.756ZM1095.55 160.756H1091.93V192.963H1095.55H1099.17V160.756H1095.55ZM1095.55 192.963V189.344H1063.35V192.963V196.583H1095.55V192.963ZM1063.35 192.963H1066.97V160.756H1063.35H1059.73V192.963H1063.35ZM1031.14 192.963V196.583H1063.35V192.963V189.344H1031.14V192.963ZM1063.35 192.963H1059.73V225.17H1063.35H1066.97V192.963H1063.35ZM1063.35 225.17V221.551H1031.14V225.17V228.79H1063.35V225.17ZM1031.14 225.17H1034.76V192.963H1031.14H1027.52V225.17H1031.14ZM1031.14 289.585V293.205H1063.35V289.585V285.966H1031.14V289.585ZM1063.35 289.585H1059.73V321.793H1063.35H1066.97V289.585H1063.35ZM1063.35 321.793V318.173H1031.14V321.793V325.412H1063.35V321.793ZM1031.14 321.793H1034.76V289.585H1031.14H1027.52V321.793H1031.14ZM1063.35 321.793V325.412H1095.55V321.793V318.173H1063.35V321.793ZM1095.55 321.793H1091.93V354H1095.55H1099.17V321.793H1095.55ZM1095.55 354V350.38H1063.35V354V357.62H1095.55V354ZM1063.35 354H1066.97V321.793H1063.35H1059.73V354H1063.35ZM1224.51 192.963H1228.13V189.344H1224.51V192.963ZM1160.09 192.963H1156.48V196.583H1160.09V192.963ZM1160.09 160.756V157.136H1156.48V160.756H1160.09ZM1256.72 160.756H1260.34V157.136H1256.72V160.756ZM1256.72 321.793H1253.1V325.412H1256.72V321.793ZM1321.13 321.793H1324.75V318.173H1321.13V321.793ZM1321.13 354V357.62H1324.75V354H1321.13ZM1160.09 354H1156.48V357.62H1160.09V354ZM1160.09 321.793V318.173H1156.48V321.793H1160.09ZM1224.51 321.793V325.412H1228.13V321.793H1224.51ZM1224.51 96.3409V92.7213H1220.89V96.3409H1224.51ZM1256.72 96.3409H1260.34V92.7213H1256.72V96.3409ZM1256.72 128.548V132.168H1260.34V128.548H1256.72ZM1224.51 128.548H1220.89V132.168H1224.51V128.548ZM1224.51 192.963V189.344H1160.09V192.963V196.583H1224.51V192.963ZM1160.09 192.963H1163.71V160.756H1160.09H1156.48V192.963H1160.09ZM1160.09 160.756V164.375H1256.72V160.756V157.136H1160.09V160.756ZM1256.72 160.756H1253.1V321.793H1256.72H1260.34V160.756H1256.72ZM1256.72 321.793V325.412H1321.13V321.793V318.173H1256.72V321.793ZM1321.13 321.793H1317.51V354H1321.13H1324.75V321.793H1321.13ZM1321.13 354V350.38H1160.09V354V357.62H1321.13V354ZM1160.09 354H1163.71V321.793H1160.09H1156.48V354H1160.09ZM1160.09 321.793V325.412H1224.51V321.793V318.173H1160.09V321.793ZM1224.51 321.793H1228.13V192.963H1224.51H1220.89V321.793H1224.51ZM1224.51 96.3409V99.9604H1256.72V96.3409V92.7213H1224.51V96.3409ZM1256.72 96.3409H1253.1V128.548H1256.72H1260.34V96.3409H1256.72ZM1256.72 128.548V124.929H1224.51V128.548V132.168H1256.72V128.548ZM1224.51 128.548H1228.13V96.3409H1224.51H1220.89V128.548H1224.51ZM1385.67 160.756V157.136H1382.05V160.756H1385.67ZM1417.88 160.756H1421.5V157.136H1417.88V160.756ZM1417.88 192.963H1414.26V196.583H1417.88V192.963ZM1450.09 192.963H1453.71V189.344H1450.09V192.963ZM1450.09 225.17V228.79H1453.71V225.17H1450.09ZM1417.88 225.17V221.551H1414.26V225.17H1417.88ZM1417.88 354V357.62H1421.5V354H1417.88ZM1385.67 354H1382.05V357.62H1385.67V354ZM1450.09 160.756V157.136H1446.47V160.756H1450.09ZM1514.5 160.756H1518.12V157.136H1514.5V160.756ZM1514.5 192.963V196.583H1518.12V192.963H1514.5ZM1450.09 192.963H1446.47V196.583H1450.09V192.963ZM1514.5 192.963V189.344H1510.88V192.963H1514.5ZM1546.71 192.963H1550.33V189.344H1546.71V192.963ZM1546.71 354V357.62H1550.33V354H1546.71ZM1514.5 354H1510.88V357.62H1514.5V354ZM1385.67 160.756V164.375H1417.88V160.756V157.136H1385.67V160.756ZM1417.88 160.756H1414.26V192.963H1417.88H1421.5V160.756H1417.88ZM1417.88 192.963V196.583H1450.09V192.963V189.344H1417.88V192.963ZM1450.09 192.963H1446.47V225.17H1450.09H1453.71V192.963H1450.09ZM1450.09 225.17V221.551H1417.88V225.17V228.79H1450.09V225.17ZM1417.88 225.17H1414.26V354H1417.88H1421.5V225.17H1417.88ZM1417.88 354V350.38H1385.67V354V357.62H1417.88V354ZM1385.67 354H1389.29V160.756H1385.67H1382.05V354H1385.67ZM1450.09 160.756V164.375H1514.5V160.756V157.136H1450.09V160.756ZM1514.5 160.756H1510.88V192.963H1514.5H1518.12V160.756H1514.5ZM1514.5 192.963V189.344H1450.09V192.963V196.583H1514.5V192.963ZM1450.09 192.963H1453.71V160.756H1450.09H1446.47V192.963H1450.09ZM1514.5 192.963V196.583H1546.71V192.963V189.344H1514.5V192.963ZM1546.71 192.963H1543.09V354H1546.71H1550.33V192.963H1546.71ZM1546.71 354V350.38H1514.5V354V357.62H1546.71V354ZM1514.5 354H1518.12V192.963H1514.5H1510.88V354H1514.5ZM1675.66 96.3409V92.7213H1672.05V96.3409H1675.66ZM1707.87 96.3409H1711.49V92.7213H1707.87V96.3409ZM1707.87 192.963V196.583H1711.49V192.963H1707.87ZM1675.66 192.963H1672.05V196.583H1675.66V192.963ZM1675.66 96.3409V99.9604H1707.87V96.3409V92.7213H1675.66V96.3409ZM1707.87 96.3409H1704.25V192.963H1707.87H1711.49V96.3409H1707.87ZM1707.87 192.963V189.344H1675.66V192.963V196.583H1707.87V192.963ZM1675.66 192.963H1679.28V96.3409H1675.66H1672.05V192.963H1675.66Z" fill="black" mask="url(#path-1-outside-1_200_46)"/>
<mask id="path-3-outside-2_200_46" maskUnits="userSpaceOnUse" x="989.188" y="481.402" width="1297" height="265" fill="black">
<rect fill="white" x="989.188" y="481.402" width="1297" height="265"/>
<path d="M993.266 484.742H1122.1V516.95H1025.47V613.572H1122.1V677.987H1089.89V645.78H1025.47V742.402H993.266V484.742ZM1122.1 516.95H1154.3V613.572H1122.1V516.95ZM1122.1 677.987H1154.3V742.402H1122.1V677.987ZM1251.05 549.157H1347.67V581.365H1251.05V549.157ZM1347.67 581.365H1379.88V710.195H1347.67V581.365ZM1218.84 581.365H1251.05V710.195H1218.84V581.365ZM1251.05 710.195H1347.67V742.402H1251.05V710.195ZM1476.63 549.157H1573.25V581.365H1476.63V549.157ZM1444.42 581.365H1476.63V710.195H1444.42V581.365ZM1476.63 710.195H1573.25V742.402H1476.63V710.195ZM1573.25 581.365H1605.46V613.572H1573.25V581.365ZM1573.25 677.987H1605.46V710.195H1573.25V677.987ZM1670 484.742H1702.21V645.78H1734.42V613.572H1766.62V677.987H1702.21V742.402H1670V484.742ZM1798.83 549.157H1831.04V581.365H1798.83V549.157ZM1766.62 581.365H1798.83V613.572H1766.62V581.365ZM1766.62 677.987H1798.83V710.195H1766.62V677.987ZM1798.83 710.195H1831.04V742.402H1798.83V710.195ZM2024.41 710.195V742.402H1927.79V710.195H2024.41ZM1927.79 710.195H1895.58V677.987H1927.79V710.195ZM2024.41 549.157V581.365H1927.79V549.157H2024.41ZM1895.58 581.365H1927.79V613.572H1895.58V581.365ZM1927.79 613.572H2024.41V645.78H1927.79V613.572ZM2024.41 645.78H2056.62V710.195H2024.41V645.78ZM2024.41 581.365H2056.62V613.572H2024.41V581.365ZM2185.57 484.742H2217.78V549.157H2249.99V581.365H2217.78V645.78H2185.57V581.365H2153.36V549.157H2185.57V484.742ZM2153.36 549.157H2121.16V516.95H2153.36V549.157ZM2121.16 581.365H2153.36V613.572H2121.16V581.365ZM2249.99 516.95H2282.19V549.157H2249.99V516.95ZM2249.99 581.365H2282.19V613.572H2249.99V581.365Z"/>
</mask>
<path d="M993.266 484.742H1122.1V516.95H1025.47V613.572H1122.1V677.987H1089.89V645.78H1025.47V742.402H993.266V484.742ZM1122.1 516.95H1154.3V613.572H1122.1V516.95ZM1122.1 677.987H1154.3V742.402H1122.1V677.987ZM1251.05 549.157H1347.67V581.365H1251.05V549.157ZM1347.67 581.365H1379.88V710.195H1347.67V581.365ZM1218.84 581.365H1251.05V710.195H1218.84V581.365ZM1251.05 710.195H1347.67V742.402H1251.05V710.195ZM1476.63 549.157H1573.25V581.365H1476.63V549.157ZM1444.42 581.365H1476.63V710.195H1444.42V581.365ZM1476.63 710.195H1573.25V742.402H1476.63V710.195ZM1573.25 581.365H1605.46V613.572H1573.25V581.365ZM1573.25 677.987H1605.46V710.195H1573.25V677.987ZM1670 484.742H1702.21V645.78H1734.42V613.572H1766.62V677.987H1702.21V742.402H1670V484.742ZM1798.83 549.157H1831.04V581.365H1798.83V549.157ZM1766.62 581.365H1798.83V613.572H1766.62V581.365ZM1766.62 677.987H1798.83V710.195H1766.62V677.987ZM1798.83 710.195H1831.04V742.402H1798.83V710.195ZM2024.41 710.195V742.402H1927.79V710.195H2024.41ZM1927.79 710.195H1895.58V677.987H1927.79V710.195ZM2024.41 549.157V581.365H1927.79V549.157H2024.41ZM1895.58 581.365H1927.79V613.572H1895.58V581.365ZM1927.79 613.572H2024.41V645.78H1927.79V613.572ZM2024.41 645.78H2056.62V710.195H2024.41V645.78ZM2024.41 581.365H2056.62V613.572H2024.41V581.365ZM2185.57 484.742H2217.78V549.157H2249.99V581.365H2217.78V645.78H2185.57V581.365H2153.36V549.157H2185.57V484.742ZM2153.36 549.157H2121.16V516.95H2153.36V549.157ZM2121.16 581.365H2153.36V613.572H2121.16V581.365ZM2249.99 516.95H2282.19V549.157H2249.99V516.95ZM2249.99 581.365H2282.19V613.572H2249.99V581.365Z" fill="black"/>
<path d="M993.266 484.742V481.617H990.141V484.742H993.266ZM1122.1 484.742H1125.22V481.617H1122.1V484.742ZM1122.1 516.95V520.075H1125.22V516.95H1122.1ZM1025.47 516.95V513.825H1022.35V516.95H1025.47ZM1025.47 613.572H1022.35V616.697H1025.47V613.572ZM1122.1 613.572H1125.22V610.447H1122.1V613.572ZM1122.1 677.987V681.112H1125.22V677.987H1122.1ZM1089.89 677.987H1086.76V681.112H1089.89V677.987ZM1089.89 645.78H1093.01V642.655H1089.89V645.78ZM1025.47 645.78V642.655H1022.35V645.78H1025.47ZM1025.47 742.402V745.527H1028.6V742.402H1025.47ZM993.266 742.402H990.141V745.527H993.266V742.402ZM1122.1 516.95V513.825H1118.97V516.95H1122.1ZM1154.3 516.95H1157.43V513.825H1154.3V516.95ZM1154.3 613.572V616.697H1157.43V613.572H1154.3ZM1122.1 613.572H1118.97V616.697H1122.1V613.572ZM1122.1 677.987V674.862H1118.97V677.987H1122.1ZM1154.3 677.987H1157.43V674.862H1154.3V677.987ZM1154.3 742.402V745.527H1157.43V742.402H1154.3ZM1122.1 742.402H1118.97V745.527H1122.1V742.402ZM993.266 484.742V487.867H1122.1V484.742V481.617H993.266V484.742ZM1122.1 484.742H1118.97V516.95H1122.1H1125.22V484.742H1122.1ZM1122.1 516.95V513.825H1025.47V516.95V520.075H1122.1V516.95ZM1025.47 516.95H1022.35V613.572H1025.47H1028.6V516.95H1025.47ZM1025.47 613.572V616.697H1122.1V613.572V610.447H1025.47V613.572ZM1122.1 613.572H1118.97V677.987H1122.1H1125.22V613.572H1122.1ZM1122.1 677.987V674.862H1089.89V677.987V681.112H1122.1V677.987ZM1089.89 677.987H1093.01V645.78H1089.89H1086.76V677.987H1089.89ZM1089.89 645.78V642.655H1025.47V645.78V648.905H1089.89V645.78ZM1025.47 645.78H1022.35V742.402H1025.47H1028.6V645.78H1025.47ZM1025.47 742.402V739.277H993.266V742.402V745.527H1025.47V742.402ZM993.266 742.402H996.391V484.742H993.266H990.141V742.402H993.266ZM1122.1 516.95V520.075H1154.3V516.95V513.825H1122.1V516.95ZM1154.3 516.95H1151.18V613.572H1154.3H1157.43V516.95H1154.3ZM1154.3 613.572V610.447H1122.1V613.572V616.697H1154.3V613.572ZM1122.1 613.572H1125.22V516.95H1122.1H1118.97V613.572H1122.1ZM1122.1 677.987V681.112H1154.3V677.987V674.862H1122.1V677.987ZM1154.3 677.987H1151.18V742.402H1154.3H1157.43V677.987H1154.3ZM1154.3 742.402V739.277H1122.1V742.402V745.527H1154.3V742.402ZM1122.1 742.402H1125.22V677.987H1122.1H1118.97V742.402H1122.1ZM1251.05 549.157V546.032H1247.93V549.157H1251.05ZM1347.67 549.157H1350.8V546.032H1347.67V549.157ZM1347.67 581.365V584.49H1350.8V581.365H1347.67ZM1251.05 581.365H1247.93V584.49H1251.05V581.365ZM1347.67 581.365V578.24H1344.55V581.365H1347.67ZM1379.88 581.365H1383.01V578.24H1379.88V581.365ZM1379.88 710.195V713.32H1383.01V710.195H1379.88ZM1347.67 710.195H1344.55V713.32H1347.67V710.195ZM1218.84 581.365V578.24H1215.72V581.365H1218.84ZM1251.05 581.365H1254.18V578.24H1251.05V581.365ZM1251.05 710.195V713.32H1254.18V710.195H1251.05ZM1218.84 710.195H1215.72V713.32H1218.84V710.195ZM1251.05 710.195V707.07H1247.93V710.195H1251.05ZM1347.67 710.195H1350.8V707.07H1347.67V710.195ZM1347.67 742.402V745.527H1350.8V742.402H1347.67ZM1251.05 742.402H1247.93V745.527H1251.05V742.402ZM1251.05 549.157V552.282H1347.67V549.157V546.032H1251.05V549.157ZM1347.67 549.157H1344.55V581.365H1347.67H1350.8V549.157H1347.67ZM1347.67 581.365V578.24H1251.05V581.365V584.49H1347.67V581.365ZM1251.05 581.365H1254.18V549.157H1251.05H1247.93V581.365H1251.05ZM1347.67 581.365V584.49H1379.88V581.365V578.24H1347.67V581.365ZM1379.88 581.365H1376.76V710.195H1379.88H1383.01V581.365H1379.88ZM1379.88 710.195V707.07H1347.67V710.195V713.32H1379.88V710.195ZM1347.67 710.195H1350.8V581.365H1347.67H1344.55V710.195H1347.67ZM1218.84 581.365V584.49H1251.05V581.365V578.24H1218.84V581.365ZM1251.05 581.365H1247.93V710.195H1251.05H1254.18V581.365H1251.05ZM1251.05 710.195V707.07H1218.84V710.195V713.32H1251.05V710.195ZM1218.84 710.195H1221.97V581.365H1218.84H1215.72V710.195H1218.84ZM1251.05 710.195V713.32H1347.67V710.195V707.07H1251.05V710.195ZM1347.67 710.195H1344.55V742.402H1347.67H1350.8V710.195H1347.67ZM1347.67 742.402V739.277H1251.05V742.402V745.527H1347.67V742.402ZM1251.05 742.402H1254.18V710.195H1251.05H1247.93V742.402H1251.05ZM1476.63 549.157V546.032H1473.51V549.157H1476.63ZM1573.25 549.157H1576.38V546.032H1573.25V549.157ZM1573.25 581.365V584.49H1576.38V581.365H1573.25ZM1476.63 581.365H1473.51V584.49H1476.63V581.365ZM1444.42 581.365V578.24H1441.3V581.365H1444.42ZM1476.63 581.365H1479.76V578.24H1476.63V581.365ZM1476.63 710.195V713.32H1479.76V710.195H1476.63ZM1444.42 710.195H1441.3V713.32H1444.42V710.195ZM1476.63 710.195V707.07H1473.51V710.195H1476.63ZM1573.25 710.195H1576.38V707.07H1573.25V710.195ZM1573.25 742.402V745.527H1576.38V742.402H1573.25ZM1476.63 742.402H1473.51V745.527H1476.63V742.402ZM1573.25 581.365V578.24H1570.13V581.365H1573.25ZM1605.46 581.365H1608.59V578.24H1605.46V581.365ZM1605.46 613.572V616.697H1608.59V613.572H1605.46ZM1573.25 613.572H1570.13V616.697H1573.25V613.572ZM1573.25 677.987V674.862H1570.13V677.987H1573.25ZM1605.46 677.987H1608.59V674.862H1605.46V677.987ZM1605.46 710.195V713.32H1608.59V710.195H1605.46ZM1573.25 710.195H1570.13V713.32H1573.25V710.195ZM1476.63 549.157V552.282H1573.25V549.157V546.032H1476.63V549.157ZM1573.25 549.157H1570.13V581.365H1573.25H1576.38V549.157H1573.25ZM1573.25 581.365V578.24H1476.63V581.365V584.49H1573.25V581.365ZM1476.63 581.365H1479.76V549.157H1476.63H1473.51V581.365H1476.63ZM1444.42 581.365V584.49H1476.63V581.365V578.24H1444.42V581.365ZM1476.63 581.365H1473.51V710.195H1476.63H1479.76V581.365H1476.63ZM1476.63 710.195V707.07H1444.42V710.195V713.32H1476.63V710.195ZM1444.42 710.195H1447.55V581.365H1444.42H1441.3V710.195H1444.42ZM1476.63 710.195V713.32H1573.25V710.195V707.07H1476.63V710.195ZM1573.25 710.195H1570.13V742.402H1573.25H1576.38V710.195H1573.25ZM1573.25 742.402V739.277H1476.63V742.402V745.527H1573.25V742.402ZM1476.63 742.402H1479.76V710.195H1476.63H1473.51V742.402H1476.63ZM1573.25 581.365V584.49H1605.46V581.365V578.24H1573.25V581.365ZM1605.46 581.365H1602.34V613.572H1605.46H1608.59V581.365H1605.46ZM1605.46 613.572V610.447H1573.25V613.572V616.697H1605.46V613.572ZM1573.25 613.572H1576.38V581.365H1573.25H1570.13V613.572H1573.25ZM1573.25 677.987V681.112H1605.46V677.987V674.862H1573.25V677.987ZM1605.46 677.987H1602.34V710.195H1605.46H1608.59V677.987H1605.46ZM1605.46 710.195V707.07H1573.25V710.195V713.32H1605.46V710.195ZM1573.25 710.195H1576.38V677.987H1573.25H1570.13V710.195H1573.25ZM1670 484.742V481.617H1666.88V484.742H1670ZM1702.21 484.742H1705.33V481.617H1702.21V484.742ZM1702.21 645.78H1699.08V648.905H1702.21V645.78ZM1734.42 645.78V648.905H1737.54V645.78H1734.42ZM1734.42 613.572V610.447H1731.29V613.572H1734.42ZM1766.62 613.572H1769.75V610.447H1766.62V613.572ZM1766.62 677.987V681.112H1769.75V677.987H1766.62ZM1702.21 677.987V674.862H1699.08V677.987H1702.21ZM1702.21 742.402V745.527H1705.33V742.402H1702.21ZM1670 742.402H1666.88V745.527H1670V742.402ZM1798.83 549.157V546.032H1795.71V549.157H1798.83ZM1831.04 549.157H1834.16V546.032H1831.04V549.157ZM1831.04 581.365V584.49H1834.16V581.365H1831.04ZM1798.83 581.365H1795.71V584.49H1798.83V581.365ZM1766.62 581.365V578.24H1763.5V581.365H1766.62ZM1798.83 581.365H1801.96V578.24H1798.83V581.365ZM1798.83 613.572V616.697H1801.96V613.572H1798.83ZM1766.62 613.572H1763.5V616.697H1766.62V613.572ZM1766.62 677.987V674.862H1763.5V677.987H1766.62ZM1798.83 677.987H1801.96V674.862H1798.83V677.987ZM1798.83 710.195V713.32H1801.96V710.195H1798.83ZM1766.62 710.195H1763.5V713.32H1766.62V710.195ZM1798.83 710.195V707.07H1795.71V710.195H1798.83ZM1831.04 710.195H1834.16V707.07H1831.04V710.195ZM1831.04 742.402V745.527H1834.16V742.402H1831.04ZM1798.83 742.402H1795.71V745.527H1798.83V742.402ZM1670 484.742V487.867H1702.21V484.742V481.617H1670V484.742ZM1702.21 484.742H1699.08V645.78H1702.21H1705.33V484.742H1702.21ZM1702.21 645.78V648.905H1734.42V645.78V642.655H1702.21V645.78ZM1734.42 645.78H1737.54V613.572H1734.42H1731.29V645.78H1734.42ZM1734.42 613.572V616.697H1766.62V613.572V610.447H1734.42V613.572ZM1766.62 613.572H1763.5V677.987H1766.62H1769.75V613.572H1766.62ZM1766.62 677.987V674.862H1702.21V677.987V681.112H1766.62V677.987ZM1702.21 677.987H1699.08V742.402H1702.21H1705.33V677.987H1702.21ZM1702.21 742.402V739.277H1670V742.402V745.527H1702.21V742.402ZM1670 742.402H1673.13V484.742H1670H1666.88V742.402H1670ZM1798.83 549.157V552.282H1831.04V549.157V546.032H1798.83V549.157ZM1831.04 549.157H1827.91V581.365H1831.04H1834.16V549.157H1831.04ZM1831.04 581.365V578.24H1798.83V581.365V584.49H1831.04V581.365ZM1798.83 581.365H1801.96V549.157H1798.83H1795.71V581.365H1798.83ZM1766.62 581.365V584.49H1798.83V581.365V578.24H1766.62V581.365ZM1798.83 581.365H1795.71V613.572H1798.83H1801.96V581.365H1798.83ZM1798.83 613.572V610.447H1766.62V613.572V616.697H1798.83V613.572ZM1766.62 613.572H1769.75V581.365H1766.62H1763.5V613.572H1766.62ZM1766.62 677.987V681.112H1798.83V677.987V674.862H1766.62V677.987ZM1798.83 677.987H1795.71V710.195H1798.83H1801.96V677.987H1798.83ZM1798.83 710.195V707.07H1766.62V710.195V713.32H1798.83V710.195ZM1766.62 710.195H1769.75V677.987H1766.62H1763.5V710.195H1766.62ZM1798.83 710.195V713.32H1831.04V710.195V707.07H1798.83V710.195ZM1831.04 710.195H1827.91V742.402H1831.04H1834.16V710.195H1831.04ZM1831.04 742.402V739.277H1798.83V742.402V745.527H1831.04V742.402ZM1798.83 742.402H1801.96V710.195H1798.83H1795.71V742.402H1798.83ZM2024.41 710.195H2027.53V707.07H2024.41V710.195ZM2024.41 742.402V745.527H2027.53V742.402H2024.41ZM1927.79 742.402H1924.66V745.527H1927.79V742.402ZM1927.79 710.195V707.07H1924.66V710.195H1927.79ZM1927.79 710.195V713.32H1930.91V710.195H1927.79ZM1895.58 710.195H1892.45V713.32H1895.58V710.195ZM1895.58 677.987V674.862H1892.45V677.987H1895.58ZM1927.79 677.987H1930.91V674.862H1927.79V677.987ZM2024.41 549.157H2027.53V546.032H2024.41V549.157ZM2024.41 581.365V584.49H2027.53V581.365H2024.41ZM1927.79 581.365H1924.66V584.49H1927.79V581.365ZM1927.79 549.157V546.032H1924.66V549.157H1927.79ZM1895.58 581.365V578.24H1892.45V581.365H1895.58ZM1927.79 581.365H1930.91V578.24H1927.79V581.365ZM1927.79 613.572V616.697H1930.91V613.572H1927.79ZM1895.58 613.572H1892.45V616.697H1895.58V613.572ZM1927.79 613.572V610.447H1924.66V613.572H1927.79ZM2024.41 613.572H2027.53V610.447H2024.41V613.572ZM2024.41 645.78V648.905H2027.53V645.78H2024.41ZM1927.79 645.78H1924.66V648.905H1927.79V645.78ZM2024.41 645.78V642.655H2021.28V645.78H2024.41ZM2056.62 645.78H2059.74V642.655H2056.62V645.78ZM2056.62 710.195V713.32H2059.74V710.195H2056.62ZM2024.41 710.195H2021.28V713.32H2024.41V710.195ZM2024.41 581.365V578.24H2021.28V581.365H2024.41ZM2056.62 581.365H2059.74V578.24H2056.62V581.365ZM2056.62 613.572V616.697H2059.74V613.572H2056.62ZM2024.41 613.572H2021.28V616.697H2024.41V613.572ZM2024.41 710.195H2021.28V742.402H2024.41H2027.53V710.195H2024.41ZM2024.41 742.402V739.277H1927.79V742.402V745.527H2024.41V742.402ZM1927.79 742.402H1930.91V710.195H1927.79H1924.66V742.402H1927.79ZM1927.79 710.195V713.32H2024.41V710.195V707.07H1927.79V710.195ZM1927.79 710.195V707.07H1895.58V710.195V713.32H1927.79V710.195ZM1895.58 710.195H1898.7V677.987H1895.58H1892.45V710.195H1895.58ZM1895.58 677.987V681.112H1927.79V677.987V674.862H1895.58V677.987ZM1927.79 677.987H1924.66V710.195H1927.79H1930.91V677.987H1927.79ZM2024.41 549.157H2021.28V581.365H2024.41H2027.53V549.157H2024.41ZM2024.41 581.365V578.24H1927.79V581.365V584.49H2024.41V581.365ZM1927.79 581.365H1930.91V549.157H1927.79H1924.66V581.365H1927.79ZM1927.79 549.157V552.282H2024.41V549.157V546.032H1927.79V549.157ZM1895.58 581.365V584.49H1927.79V581.365V578.24H1895.58V581.365ZM1927.79 581.365H1924.66V613.572H1927.79H1930.91V581.365H1927.79ZM1927.79 613.572V610.447H1895.58V613.572V616.697H1927.79V613.572ZM1895.58 613.572H1898.7V581.365H1895.58H1892.45V613.572H1895.58ZM1927.79 613.572V616.697H2024.41V613.572V610.447H1927.79V613.572ZM2024.41 613.572H2021.28V645.78H2024.41H2027.53V613.572H2024.41ZM2024.41 645.78V642.655H1927.79V645.78V648.905H2024.41V645.78ZM1927.79 645.78H1930.91V613.572H1927.79H1924.66V645.78H1927.79ZM2024.41 645.78V648.905H2056.62V645.78V642.655H2024.41V645.78ZM2056.62 645.78H2053.49V710.195H2056.62H2059.74V645.78H2056.62ZM2056.62 710.195V707.07H2024.41V710.195V713.32H2056.62V710.195ZM2024.41 710.195H2027.53V645.78H2024.41H2021.28V710.195H2024.41ZM2024.41 581.365V584.49H2056.62V581.365V578.24H2024.41V581.365ZM2056.62 581.365H2053.49V613.572H2056.62H2059.74V581.365H2056.62ZM2056.62 613.572V610.447H2024.41V613.572V616.697H2056.62V613.572ZM2024.41 613.572H2027.53V581.365H2024.41H2021.28V613.572H2024.41ZM2185.57 484.742V481.617H2182.45V484.742H2185.57ZM2217.78 484.742H2220.9V481.617H2217.78V484.742ZM2217.78 549.157H2214.65V552.282H2217.78V549.157ZM2249.99 549.157H2253.11V546.032H2249.99V549.157ZM2249.99 581.365V584.49H2253.11V581.365H2249.99ZM2217.78 581.365V578.24H2214.65V581.365H2217.78ZM2217.78 645.78V648.905H2220.9V645.78H2217.78ZM2185.57 645.78H2182.45V648.905H2185.57V645.78ZM2185.57 581.365H2188.7V578.24H2185.57V581.365ZM2153.36 581.365H2150.24V584.49H2153.36V581.365ZM2153.36 549.157V546.032H2150.24V549.157H2153.36ZM2185.57 549.157V552.282H2188.7V549.157H2185.57ZM2153.36 549.157V552.282H2156.49V549.157H2153.36ZM2121.16 549.157H2118.03V552.282H2121.16V549.157ZM2121.16 516.95V513.825H2118.03V516.95H2121.16ZM2153.36 516.95H2156.49V513.825H2153.36V516.95ZM2121.16 581.365V578.24H2118.03V581.365H2121.16ZM2153.36 581.365H2156.49V578.24H2153.36V581.365ZM2153.36 613.572V616.697H2156.49V613.572H2153.36ZM2121.16 613.572H2118.03V616.697H2121.16V613.572ZM2249.99 516.95V513.825H2246.86V516.95H2249.99ZM2282.19 516.95H2285.32V513.825H2282.19V516.95ZM2282.19 549.157V552.282H2285.32V549.157H2282.19ZM2249.99 549.157H2246.86V552.282H2249.99V549.157ZM2249.99 581.365V578.24H2246.86V581.365H2249.99ZM2282.19 581.365H2285.32V578.24H2282.19V581.365ZM2282.19 613.572V616.697H2285.32V613.572H2282.19ZM2249.99 613.572H2246.86V616.697H2249.99V613.572ZM2185.57 484.742V487.867H2217.78V484.742V481.617H2185.57V484.742ZM2217.78 484.742H2214.65V549.157H2217.78H2220.9V484.742H2217.78ZM2217.78 549.157V552.282H2249.99V549.157V546.032H2217.78V549.157ZM2249.99 549.157H2246.86V581.365H2249.99H2253.11V549.157H2249.99ZM2249.99 581.365V578.24H2217.78V581.365V584.49H2249.99V581.365ZM2217.78 581.365H2214.65V645.78H2217.78H2220.9V581.365H2217.78ZM2217.78 645.78V642.655H2185.57V645.78V648.905H2217.78V645.78ZM2185.57 645.78H2188.7V581.365H2185.57H2182.45V645.78H2185.57ZM2185.57 581.365V578.24H2153.36V581.365V584.49H2185.57V581.365ZM2153.36 581.365H2156.49V549.157H2153.36H2150.24V581.365H2153.36ZM2153.36 549.157V552.282H2185.57V549.157V546.032H2153.36V549.157ZM2185.57 549.157H2188.7V484.742H2185.57H2182.45V549.157H2185.57ZM2153.36 549.157V546.032H2121.16V549.157V552.282H2153.36V549.157ZM2121.16 549.157H2124.28V516.95H2121.16H2118.03V549.157H2121.16ZM2121.16 516.95V520.075H2153.36V516.95V513.825H2121.16V516.95ZM2153.36 516.95H2150.24V549.157H2153.36H2156.49V516.95H2153.36ZM2121.16 581.365V584.49H2153.36V581.365V578.24H2121.16V581.365ZM2153.36 581.365H2150.24V613.572H2153.36H2156.49V581.365H2153.36ZM2153.36 613.572V610.447H2121.16V613.572V616.697H2153.36V613.572ZM2121.16 613.572H2124.28V581.365H2121.16H2118.03V613.572H2121.16ZM2249.99 516.95V520.075H2282.19V516.95V513.825H2249.99V516.95ZM2282.19 516.95H2279.07V549.157H2282.19H2285.32V516.95H2282.19ZM2282.19 549.157V546.032H2249.99V549.157V552.282H2282.19V549.157ZM2249.99 549.157H2253.11V516.95H2249.99H2246.86V549.157H2249.99ZM2249.99 581.365V584.49H2282.19V581.365V578.24H2249.99V581.365ZM2282.19 581.365H2279.07V613.572H2282.19H2285.32V581.365H2282.19ZM2282.19 613.572V610.447H2249.99V613.572V616.697H2282.19V613.572ZM2249.99 613.572H2253.11V581.365H2249.99H2246.86V613.572H2249.99Z" fill="black" mask="url(#path-3-outside-2_200_46)"/>
</svg>
