<svg width="289" height="340" viewBox="0 0 289 340" fill="none" xmlns="http://www.w3.org/2000/svg">
<path d="M98.7868 121.213C110.503 109.497 129.497 109.497 141.213 121.213L218.787 198.787C230.503 210.503 230.503 229.497 218.787 241.213L141.213 318.787C129.497 330.503 110.503 330.503 98.7868 318.787L21.2132 241.213C9.49748 229.497 9.49747 210.503 21.2132 198.787L98.7868 121.213Z" fill="#FFD884"/>
<path d="M199.787 71.2132C211.503 59.4975 230.497 59.4975 242.213 71.2132L267.787 96.7868C279.503 108.503 279.503 127.497 267.787 139.213L242.213 164.787C230.497 176.503 211.503 176.503 199.787 164.787L174.213 139.213C162.497 127.497 162.497 108.503 174.213 96.7868L199.787 71.2132Z" fill="#81D5FC"/>
<path d="M131.787 21.2132C143.503 9.49747 162.497 9.49747 174.213 21.2132L181.787 28.7868C193.503 40.5025 193.503 59.4975 181.787 71.2132L174.213 78.7868C162.497 90.5025 143.503 90.5025 131.787 78.7868L124.213 71.2132C112.497 59.4975 112.497 40.5025 124.213 28.7868L131.787 21.2132Z" fill="#8F8080"/>
</svg>
