<svg width="891" height="891" viewBox="0 0 891 891" fill="none" xmlns="http://www.w3.org/2000/svg">
<rect width="891" height="891" fill="white"/>
<path d="M57.6777 249.273H268.782V298.33H184.34V641.726H142.119V298.33H57.6777V249.273Z" fill="#CD2DC6" style="mix-blend-mode:multiply"/>
<path d="M343.117 249.274H512V298.331H385.337V445.5H512V543.613H469.779V494.557H385.337V641.727H343.117V249.274ZM512 298.331H554.221V445.5H512V298.331ZM512 543.613H554.221V641.727H512V543.613Z" fill="#CD2DC6" style="mix-blend-mode:multiply"/>
<path d="M706.66 249.274H748.88V347.387H791.101V396.444H748.88V494.557H706.66V396.444H664.439V347.387H706.66V249.274ZM664.439 347.387H622.218V298.331H664.439V347.387ZM622.218 396.444H664.439V445.5H622.218V396.444ZM791.101 298.331H833.322V347.387H791.101V298.331ZM791.101 396.444H833.322V445.5H791.101V396.444Z" fill="#CD2DC6" style="mix-blend-mode:multiply"/>
</svg>
