<?xml version="1.0" encoding="UTF-8"?>
<!-- Generated by Pixelmator Pro 2.4.2 -->
<svg width="512" height="506" viewBox="0 0 512 506" xmlns="http://www.w3.org/2000/svg" xmlns:xlink="http://www.w3.org/1999/xlink">
    <path id="Rectangle" fill="#d9ccbc" fill-rule="evenodd" stroke="none" d="M 11 495 L 498 495 L 498 359 L 11 359 Z"/>
    <path id="path1" fill="#d9ccbc" fill-rule="evenodd" stroke="none" d="M 412 453 L 451 453 L 451 441 L 412 441 Z"/>
    <path id="path2" fill="#d9ccbc" fill-rule="evenodd" stroke="none" d="M 407 337 L 471 337 L 471 19 L 407 19 Z"/>
    <path id="path3" fill="#d9ccbc" fill-rule="evenodd" stroke="none" d="M 78 352 L 412 352 L 412 318 L 78 318 Z"/>
    <path id="path4" fill="#d9ccbc" fill-rule="evenodd" stroke="none" d="M 65 306 L 79 306 L 79 272 L 65 272 Z"/>
    <path id="path5" fill="#d9ccbc" fill-rule="evenodd" stroke="none" d="M 77 322 L 107 322 L 107 302 L 77 302 Z"/>
    <path id="path6" fill="#c0ab91" fill-rule="evenodd" stroke="none" d="M 270 423 L 473 423 L 473 411 L 270 411 Z"/>
    <path id="path7" fill="#c0ab91" fill-rule="evenodd" stroke="none" d="M 11 488 L 505 488 L 505 483 L 11 483 Z"/>
    <path id="path8" fill="#d20303" fill-rule="evenodd" stroke="#000000" stroke-width="15" stroke-linecap="round" stroke-linejoin="round" d="M 38 411 L 78 411 L 78 383 L 38 383 Z"/>
    <path id="path9" fill="#000000" fill-rule="evenodd" stroke="#000000" stroke-linecap="round" stroke-linejoin="round" d="M 270 411 L 473 411 L 473 395 L 270 395 Z"/>
    <path id="path10" fill="#000000" fill-rule="evenodd" stroke="#000000" stroke-linecap="round" stroke-linejoin="round" d="M 290 441 L 306 441 L 306 425 L 290 425 Z"/>
    <path id="path11" fill="#000000" fill-rule="evenodd" stroke="#000000" stroke-linecap="round" stroke-linejoin="round" d="M 412 441 L 451 441 L 451 425 L 412 425 Z"/>
    <path id="path12" fill="#000000" fill-rule="evenodd" stroke="#000000" stroke-linecap="round" stroke-linejoin="round" d="M 30 453 L 46 453 L 46 437 L 30 437 Z"/>
    <path id="Rectangle-copy-2" fill="#000000" fill-rule="evenodd" stroke="#000000" stroke-linecap="round" stroke-linejoin="round" d="M 30 499 L 46 499 L 46 468 L 30 468 Z"/>
    <path id="path13" fill="#c0ab91" fill-rule="evenodd" stroke="none" d="M 46 344 L 461 344 L 461 331 L 46 331 Z"/>
    <path id="Rectangle-copy-4" fill="#000000" fill-rule="evenodd" stroke="#000000" stroke-linecap="round" stroke-linejoin="round" d="M 62 453 L 78 453 L 78 437 L 62 437 Z"/>
    <path id="Rectangle-copy-3" fill="#000000" fill-rule="evenodd" stroke="#000000" stroke-linecap="round" stroke-linejoin="round" d="M 62 499 L 78 499 L 78 468 L 62 468 Z"/>
    <path id="Rectangle-copy-6" fill="#000000" fill-rule="evenodd" stroke="#000000" stroke-linecap="round" stroke-linejoin="round" d="M 91 453 L 107 453 L 107 437 L 91 437 Z"/>
    <path id="Rectangle-copy-5" fill="#000000" fill-rule="evenodd" stroke="#000000" stroke-linecap="round" stroke-linejoin="round" d="M 91 499 L 107 499 L 107 468 L 91 468 Z"/>
    <path id="Rectangle-copy-8" fill="#000000" fill-rule="evenodd" stroke="#000000" stroke-linecap="round" stroke-linejoin="round" d="M 121 453 L 137 453 L 137 437 L 121 437 Z"/>
    <path id="Rectangle-copy-7" fill="#000000" fill-rule="evenodd" stroke="#000000" stroke-linecap="round" stroke-linejoin="round" d="M 121 499 L 137 499 L 137 468 L 121 468 Z"/>
    <path id="Rectangle-copy-10" fill="#000000" fill-rule="evenodd" stroke="#000000" stroke-linecap="round" stroke-linejoin="round" d="M 151 453 L 167 453 L 167 437 L 151 437 Z"/>
    <path id="Rectangle-copy-9" fill="#000000" fill-rule="evenodd" stroke="#000000" stroke-linecap="round" stroke-linejoin="round" d="M 151 499 L 167 499 L 167 468 L 151 468 Z"/>
    <path id="Rectangle-copy-12" fill="#000000" fill-rule="evenodd" stroke="#000000" stroke-linecap="round" stroke-linejoin="round" d="M 183 453 L 199 453 L 199 437 L 183 437 Z"/>
    <path id="Rectangle-copy-11" fill="#000000" fill-rule="evenodd" stroke="#000000" stroke-linecap="round" stroke-linejoin="round" d="M 183 499 L 199 499 L 199 468 L 183 468 Z"/>
    <path id="Rectangle-copy-14" fill="#000000" fill-rule="evenodd" stroke="#000000" stroke-linecap="round" stroke-linejoin="round" d="M 213 453 L 229 453 L 229 437 L 213 437 Z"/>
    <path id="Rectangle-copy-13" fill="#000000" fill-rule="evenodd" stroke="#000000" stroke-linecap="round" stroke-linejoin="round" d="M 213 499 L 229 499 L 229 468 L 213 468 Z"/>
    <path id="path14" fill="none" stroke="#000000" stroke-width="15" stroke-linecap="round" stroke-linejoin="round" d="M 6 495 L 505 495 L 505 352 L 6 352 Z"/>
    <path id="path15" fill="#000000" fill-rule="evenodd" stroke="#000000" stroke-linecap="round" stroke-linejoin="round" d="M 436 232 L 451 232 L 451 217 L 436 217 Z"/>
    <path id="Rectangle-copy" fill="#000000" fill-rule="evenodd" stroke="#000000" stroke-linecap="round" stroke-linejoin="round" d="M 436 272 L 451 272 L 451 257 L 436 257 Z"/>
    <path id="path16" fill="#d9ccbc" fill-rule="evenodd" stroke="none" d="M 58 54 L 461 54 L 461 11 L 58 11 Z"/>
    <path id="path17" fill="#d9ccbc" fill-rule="evenodd" stroke="none" d="M 46 289 L 77 289 L 77 32 L 46 32 Z"/>
    <path id="path18" fill="#d9ccbc" fill-rule="evenodd" stroke="none" d="M 65 71 L 92 71 L 92 32 L 65 32 Z"/>
    <path id="path19" fill="#d9ccbc" fill-rule="evenodd" stroke="none" d="M 46 37 L 65 37 L 65 19 L 46 19 Z"/>
    <path id="path20" fill="#d9ccbc" fill-rule="evenodd" stroke="none" d="M 39 331 L 79 331 L 79 283 L 39 283 Z"/>
    <path id="path21" fill="#d9ccbc" fill-rule="evenodd" stroke="none" d="M 99 318 L 412 318 L 412 308 L 99 308 Z"/>
    <path id="path22" fill="#d9ccbc" fill-rule="evenodd" stroke="none" d="M 399 313 L 421 313 L 421 289 L 399 289 Z"/>
    <path id="path23" fill="#d9ccbc" fill-rule="evenodd" stroke="none" d="M 72 318 L 91 318 L 91 294 L 72 294 Z"/>
    <path id="path24" fill="#d9ccbc" fill-rule="evenodd" stroke="none" d="M 82 318 L 107 318 L 107 306 L 82 306 Z"/>
    <path id="path25" fill="#d9ccbc" fill-rule="evenodd" stroke="none" d="M 390 63 L 421 63 L 421 45 L 390 45 Z"/>
    <path id="Rounded-Rectangle" fill="none" stroke="#000000" stroke-width="15" stroke-linecap="round" stroke-linejoin="round" d="M 79 6 C 56.908798 6 39 23.908813 39 46 L 39 310 C 39 332.091187 56.908798 350 79 350 L 433 350 C 455.091187 350 473 332.091187 473 310 L 473 46 C 473 23.908813 455.091187 6 433 6 Z"/>
    <path id="path26" fill="none" stroke="#000000" stroke-width="15" stroke-linecap="round" stroke-linejoin="round" d="M 118 54 C 95.908798 54 78 71.908813 78 94 L 78 268 C 78 290.091187 95.908798 308 118 308 L 372 308 C 394.091187 308 412 290.091187 412 268 L 412 94 C 412 71.908813 394.091187 54 372 54 Z"/>
    <path id="path27" fill="#ffffff" fill-rule="evenodd" stroke="none" d="M 436 84 L 451 84 L 451 32 L 436 32 Z"/>
    <path id="path28" fill="#ffffff" fill-rule="evenodd" stroke="none" d="M 436 114 L 451 114 L 451 98 L 436 98 Z"/>
</svg>
