<svg width="4056" height="404" viewBox="0 0 4056 404" fill="#6e11b0" xmlns="http://www.w3.org/2000/svg">
<path d="M3920.11 0H3987.73V200.683H3920.11V0Z"/>
<path d="M3852.5 66.5338H4055.34V134.149H3852.5V66.5338Z"/>
<path d="M2355.95 32.7265H2491.18V100.342H2355.95V32.7265Z"/>
<path d="M3199.79 33.8076H3267.4V403.014H3199.79V33.8076Z"/>
<path d="M3267.4 267.783H3402.63V335.399H3267.4V267.783Z"/>
<path d="M3402.63 335.399L3470.25 335.399V403.014H3402.63V335.399Z"/>
<path d="M3402.63 132.553H3470.25V267.783L3402.63 267.783V132.553Z"/>
<path d="M1237.81 33.8076H1305.42V403.014H1237.81V33.8076Z"/>
<path d="M1305.42 267.783H1440.65V335.399H1305.42V267.783Z"/>
<path d="M1440.65 335.399L1508.27 335.399V403.014H1440.65V335.399Z"/>
<path d="M1440.65 132.553H1508.27V267.783L1440.65 267.783V132.553Z"/>
<path d="M2288.34 32.7265H2355.95V401.933H2288.34V32.7265Z"/>
<path d="M2355.95 232.895H2491.18V300.51H2355.95V232.895Z"/>
<path d="M2491.18 301.591H2558.8V403.014H2491.18V301.591Z"/>
<path d="M2491.18 97.6648H2558.8V232.895L2491.18 232.895V97.6648Z"/>
<path d="M529.201 200.168H596.816V403.014H529.201V200.168Z"/>
<path d="M326.355 33.8076H393.971V403.014H326.355V33.8076Z"/>
<path d="M393.971 132.553H529.201V200.168H393.971V132.553Z"/>
<path d="M911.451 132.553H979.066V403.014H911.451V132.553Z"/>
<path d="M1114.3 200.168H1181.91V403.014H1114.3V200.168Z"/>
<path d="M979.066 132.553L1114.3 132.553V200.168H979.066L979.066 132.553Z"/>
<path d="M2614.69 200.168H2682.31V403.014H2614.69V200.168Z"/>
<path d="M2817.54 132.553H2885.15V335.398H2817.54V132.553Z"/>
<path d="M2682.31 132.553H2817.54V200.168H2682.31V132.553Z"/>
<path d="M2682.31 335.398H2817.54V403.014H2682.31V335.398Z"/>
<path d="M3661.37 200.168V267.783L3526.14 267.783V200.168H3661.37Z"/>
<path d="M3796.6 267.783V335.398H3661.37V267.783H3796.6Z"/>
<path d="M3593.76 132.553H3796.6V200.168H3593.76V132.553Z"/>
<path d="M3526.14 335.398H3728.99V403.014H3526.14V335.398Z"/>
<path d="M2941.05 200.168H3008.66V335.398H2941.05V200.168Z"/>
<path d="M3008.66 132.553H3143.89V200.168H3008.66V132.553Z"/>
<path d="M2941.05 335.398H3143.89V403.014H2941.05V335.398Z"/>
<path d="M1822.9 132.553H1890.52V403.014H1822.9V132.553Z"/>
<path d="M2025.75 200.168H2093.36V403.014H2025.75V200.168Z"/>
<path d="M2154.09 33.8075H2221.7V169.038H2154.09V33.8075Z"/>
<path d="M1890.52 132.553H2025.75V200.168H1890.52V132.553Z"/>
<path d="M720.326 132.553H787.941V403.014H720.326V132.553Z"/>
<path d="M652.711 132.553H787.941V200.168H652.711V132.553Z"/>
<path d="M720.326 33.8075H787.941V101.423H720.326V33.8075Z"/>
<path d="M652.711 335.399H855.556V403.014H652.711V335.399Z"/>
<path d="M1631.78 132.553H1699.39V403.014H1631.78V132.553Z"/>
<path d="M1564.16 132.553H1699.39V200.168H1564.16V132.553Z"/>
<path d="M1631.78 33.8075H1699.39V101.423H1631.78V33.8075Z"/>
<path d="M1564.16 335.399H1767.01V403.014H1564.16V335.399Z"/>
<path d="M101.423 33.8075H169.038V403.014H101.423V33.8075Z"/>
<path d="M0 33.8076H270.46V101.423H0V33.8076Z"/>
</svg>
